<mxfile host="app.diagrams.net" modified="2023-12-10T07:38:57.012Z" agent="Mozilla/5.0 (Macintosh; Intel Mac OS X 10.15; rv:120.0) Gecko/20100101 Firefox/120.0" etag="eNoHi6ZcNeFSIXtpFjxz" version="22.1.7" type="github">
  <diagram name="第 1 页" id="qvn1WfantJfF_u7cMkdp">
    <mxGraphModel dx="1414" dy="635" grid="1" gridSize="10" guides="1" tooltips="1" connect="1" arrows="1" fold="1" page="1" pageScale="1" pageWidth="827" pageHeight="1169" math="0" shadow="0">
      <root>
        <mxCell id="0" />
        <mxCell id="1" parent="0" />
        <mxCell id="XQjAqplEvK6TfhrPk60p-6" value="" style="rounded=0;whiteSpace=wrap;html=1;dashed=1;" vertex="1" parent="1">
          <mxGeometry x="300" y="285" width="100" height="110" as="geometry" />
        </mxCell>
        <mxCell id="XQjAqplEvK6TfhrPk60p-4" value="" style="rounded=0;whiteSpace=wrap;html=1;dashed=1;" vertex="1" parent="1">
          <mxGeometry x="130" y="310" width="100" height="60" as="geometry" />
        </mxCell>
        <mxCell id="XQjAqplEvK6TfhrPk60p-1" value="&lt;div&gt;mutable&lt;/div&gt;&lt;div&gt;segment&lt;br&gt;&lt;/div&gt;" style="rounded=0;whiteSpace=wrap;html=1;fillColor=#dae8fc;strokeColor=#6c8ebf;" vertex="1" parent="1">
          <mxGeometry x="140" y="320" width="80" height="40" as="geometry" />
        </mxCell>
        <mxCell id="XQjAqplEvK6TfhrPk60p-2" value="&lt;div&gt;mutable&lt;/div&gt;&lt;div&gt;segment&lt;br&gt;&lt;/div&gt;" style="rounded=0;whiteSpace=wrap;html=1;fillColor=#dae8fc;strokeColor=#6c8ebf;" vertex="1" parent="1">
          <mxGeometry x="310" y="295" width="80" height="40" as="geometry" />
        </mxCell>
        <mxCell id="XQjAqplEvK6TfhrPk60p-5" value="&lt;div&gt;immutable&lt;/div&gt;&lt;div&gt;segment&lt;br&gt;&lt;/div&gt;" style="rounded=0;whiteSpace=wrap;html=1;fillColor=#f8cecc;strokeColor=#b85450;" vertex="1" parent="1">
          <mxGeometry x="310" y="345" width="80" height="40" as="geometry" />
        </mxCell>
        <mxCell id="XQjAqplEvK6TfhrPk60p-7" value="" style="rounded=0;whiteSpace=wrap;html=1;dashed=1;" vertex="1" parent="1">
          <mxGeometry x="466.5" y="260" width="100" height="160" as="geometry" />
        </mxCell>
        <mxCell id="XQjAqplEvK6TfhrPk60p-8" value="&lt;div&gt;mutable&lt;/div&gt;&lt;div&gt;segment&lt;br&gt;&lt;/div&gt;" style="rounded=0;whiteSpace=wrap;html=1;fillColor=#dae8fc;strokeColor=#6c8ebf;" vertex="1" parent="1">
          <mxGeometry x="476.5" y="270" width="80" height="40" as="geometry" />
        </mxCell>
        <mxCell id="XQjAqplEvK6TfhrPk60p-9" value="&lt;div&gt;immutable&lt;/div&gt;&lt;div&gt;segment&lt;br&gt;&lt;/div&gt;" style="rounded=0;whiteSpace=wrap;html=1;fillColor=#f8cecc;strokeColor=#b85450;" vertex="1" parent="1">
          <mxGeometry x="476.5" y="320" width="80" height="40" as="geometry" />
        </mxCell>
        <mxCell id="XQjAqplEvK6TfhrPk60p-10" value="&lt;div&gt;immutable&lt;/div&gt;&lt;div&gt;segment&lt;br&gt;&lt;/div&gt;" style="rounded=0;whiteSpace=wrap;html=1;fillColor=#f8cecc;strokeColor=#b85450;" vertex="1" parent="1">
          <mxGeometry x="476.5" y="370" width="80" height="40" as="geometry" />
        </mxCell>
        <mxCell id="XQjAqplEvK6TfhrPk60p-13" value="" style="shape=flexArrow;endArrow=classic;html=1;rounded=0;" edge="1" parent="1">
          <mxGeometry width="50" height="50" relative="1" as="geometry">
            <mxPoint x="240" y="339.5" as="sourcePoint" />
            <mxPoint x="290" y="339.5" as="targetPoint" />
          </mxGeometry>
        </mxCell>
        <mxCell id="XQjAqplEvK6TfhrPk60p-14" value="" style="shape=flexArrow;endArrow=classic;html=1;rounded=0;" edge="1" parent="1">
          <mxGeometry width="50" height="50" relative="1" as="geometry">
            <mxPoint x="406.5" y="339.5" as="sourcePoint" />
            <mxPoint x="456.5" y="339.5" as="targetPoint" />
          </mxGeometry>
        </mxCell>
      </root>
    </mxGraphModel>
  </diagram>
</mxfile>
